<?xml version="1.0" standalone="no"?>
<!DOCTYPE svg PUBLIC "-//W3C//DTD SVG 20010904//EN"
 "http://www.w3.org/TR/2001/REC-SVG-20010904/DTD/svg10.dtd">
<svg version="1.0" xmlns="http://www.w3.org/2000/svg"
 width="750.000000pt" height="750.000000pt" viewBox="0 0 750.000000 750.000000"
 preserveAspectRatio="xMidYMid meet">
<metadata>
Created by potrace 1.11, written by Peter Selinger 2001-2013
</metadata>
<g transform="translate(0.000000,750.000000) scale(0.100000,-0.100000)"
fill="#000000" stroke="none">
<path d="M1990 5655 c-949 -298 -1743 -550 -1766 -559 -70 -28 -88 -114 -35
-166 16 -16 27 -30 26 -32 -2 -2 10 -4 27 -4 17 -1 33 -5 37 -10 3 -5 17 -10
31 -12 13 -1 27 -6 30 -10 3 -4 19 -8 35 -10 17 -2 31 -7 33 -12 2 -5 10 -6
19 -3 11 4 14 2 9 -5 -5 -8 -2 -10 8 -6 8 3 21 2 28 -2 7 -5 22 -10 33 -11 11
-2 21 -7 23 -12 2 -5 12 -6 24 -3 14 3 19 1 14 -6 -4 -8 -2 -10 8 -6 8 3 21 2
28 -2 7 -5 21 -10 31 -11 10 -2 34 -10 55 -19 20 -10 45 -16 56 -15 11 2 16
-2 12 -8 -4 -7 -1 -9 8 -5 8 3 21 2 28 -2 7 -5 22 -10 33 -11 11 -2 22 -8 23
-13 2 -6 8 -8 12 -5 12 7 61 -5 56 -14 -2 -3 10 -7 27 -7 17 -1 33 -6 35 -12
2 -6 10 -8 18 -5 8 3 14 0 14 -6 0 -6 7 -8 15 -5 8 3 20 2 27 -2 7 -5 19 -9
26 -10 8 -2 21 -6 30 -10 9 -4 26 -9 37 -11 11 -2 21 -7 23 -12 2 -5 12 -6 24
-3 13 3 19 1 15 -5 -4 -7 0 -9 10 -7 10 2 24 0 31 -4 10 -7 3 -25 -29 -78
-135 -222 -228 -537 -254 -866 l-7 -87 -53 -41 c-99 -76 -145 -174 -145 -308
0 -129 49 -236 140 -307 30 -24 37 -35 34 -55 -13 -78 -175 -1310 -176 -1337
-2 -42 37 -98 69 -101 13 -1 33 -7 45 -13 11 -6 18 -7 15 -2 -4 6 35 10 93 10
73 1 98 -2 94 -10 -4 -8 -2 -7 7 0 17 17 43 17 33 1 -6 -10 -4 -10 7 -2 8 5
29 11 48 13 26 2 31 0 25 -11 -6 -10 -5 -11 7 -1 20 16 122 15 112 0 -5 -8 -2
-8 8 0 9 8 46 12 95 11 75 -1 81 0 112 29 27 25 32 37 32 74 0 24 -40 341 -89
703 l-88 659 30 26 c17 14 36 25 42 23 5 -2 7 0 3 3 -4 4 8 26 27 48 47 55 75
143 75 237 0 136 -47 237 -142 307 l-51 37 7 89 c20 285 133 616 258 752 54
59 63 61 148 30 25 -9 56 -19 69 -21 14 -3 29 -8 35 -12 6 -3 20 -8 31 -9 11
-2 21 -8 23 -13 2 -5 10 -6 18 -3 8 3 14 1 14 -5 0 -6 9 -8 20 -5 11 3 20 1
20 -3 0 -5 12 -10 27 -11 15 0 29 -6 31 -12 2 -5 10 -7 19 -4 11 4 14 2 9 -5
-5 -8 -2 -10 9 -6 8 4 21 1 29 -5 7 -6 16 -8 19 -4 4 3 7 1 7 -6 0 -7 4 -10
10 -6 13 8 61 -5 55 -15 -3 -5 4 -6 15 -3 11 3 20 1 20 -5 0 -5 6 -10 13 -9
29 1 48 -4 44 -10 -3 -5 9 -9 26 -9 17 -1 33 -6 35 -12 2 -6 10 -8 18 -5 8 3
22 -1 31 -8 9 -8 18 -13 20 -11 1 1 4 2 6 1 1 0 13 -3 27 -5 14 -3 27 -9 28
-14 2 -6 8 -8 13 -4 5 3 15 2 22 -3 13 -8 14 -8 61 -18 16 -3 34 -9 40 -13 6
-3 17 -7 24 -8 8 -2 21 -6 30 -10 9 -4 26 -9 37 -11 11 -2 21 -8 23 -13 2 -5
9 -7 16 -4 7 3 26 -1 42 -7 16 -7 38 -14 49 -16 10 -2 22 -7 25 -11 3 -4 16
-8 30 -10 14 -1 26 -6 28 -11 2 -5 12 -6 24 -3 13 3 19 1 15 -5 -5 -7 1 -9 15
-5 14 3 19 1 14 -6 -4 -7 -2 -10 7 -6 7 2 27 -1 43 -7 37 -15 32 -14 76 -23
21 -5 36 -12 33 -16 -3 -5 4 -6 15 -3 12 3 20 0 20 -6 0 -7 4 -10 9 -7 5 4 22
1 38 -5 15 -7 37 -14 48 -16 11 -2 21 -7 23 -12 2 -5 12 -6 24 -3 13 3 19 1
15 -5 -5 -7 1 -9 15 -5 13 3 19 1 15 -5 -5 -7 1 -9 15 -5 13 3 19 1 15 -5 -5
-7 0 -9 13 -6 12 3 20 0 20 -6 0 -7 4 -10 9 -7 5 4 22 1 38 -5 15 -6 39 -13
53 -16 14 -2 27 -8 28 -14 2 -5 7 -7 12 -4 5 3 21 0 37 -6 15 -7 37 -14 48
-16 10 -2 22 -7 25 -12 3 -4 14 -7 24 -5 11 1 36 4 55 5 20 2 42 7 49 12 6 5
12 6 12 2 0 -4 6 -2 13 4 8 6 22 12 33 14 10 1 24 6 31 10 6 4 19 4 29 0 12
-4 15 -3 10 5 -5 8 0 13 13 14 12 0 27 1 34 2 6 1 14 4 17 8 3 4 17 10 30 12
14 2 26 5 28 7 1 1 7 3 12 4 6 1 11 3 13 5 2 1 20 6 50 13 6 1 18 6 25 10 6 5
16 5 22 2 6 -3 10 -2 10 4 0 10 52 26 82 24 10 0 15 4 11 10 -4 6 2 8 15 5 12
-3 23 -1 24 4 2 6 18 11 35 12 17 0 29 5 25 10 -3 5 5 7 16 4 12 -4 20 -3 17
2 -6 10 42 23 55 15 6 -4 10 -1 10 5 0 7 7 10 15 6 8 -3 15 0 15 5 0 6 9 9 20
6 11 -3 18 -1 14 4 -5 8 0 10 39 13 6 1 14 4 17 8 3 3 19 8 35 10 17 2 33 7
37 12 3 5 20 9 37 9 16 0 28 4 25 8 -2 4 10 11 28 15 67 16 77 19 111 33 16 6
33 9 38 5 5 -3 9 0 9 7 0 6 8 9 20 6 11 -3 18 -1 14 4 -3 5 3 10 13 11 32 2
38 3 48 9 6 4 18 5 28 4 9 -2 15 1 11 6 -5 8 3 11 47 14 9 0 23 6 31 12 7 7
25 14 38 16 14 2 33 7 42 11 9 4 22 4 29 0 8 -4 9 -3 5 4 -7 12 4 15 47 15 10
0 15 2 12 5 -7 8 106 42 117 36 4 -3 8 0 8 6 0 7 7 10 15 6 8 -3 15 -1 15 4 0
5 17 12 38 17 47 9 42 8 75 21 16 7 33 10 38 6 5 -3 9 0 9 6 0 6 4 9 9 5 5 -3
13 0 16 6 4 5 13 8 21 5 7 -3 16 -1 20 5 3 6 12 8 20 5 8 -3 14 0 14 6 0 6 3
8 7 5 3 -4 12 -2 19 4 8 6 21 9 29 5 9 -3 14 -2 10 3 -4 8 39 24 60 22 2 0 20
6 40 15 19 8 38 15 42 15 5 1 19 5 31 10 13 5 28 7 33 3 5 -3 9 -1 9 4 0 8 25
16 80 26 3 1 11 5 18 9 6 5 16 6 21 3 5 -4 11 -1 13 5 2 6 16 12 31 12 15 1
27 6 27 11 0 4 9 6 20 3 11 -3 20 -1 20 3 0 5 15 12 33 16 17 4 35 9 40 10 4
1 9 3 12 4 3 1 8 3 13 5 4 1 19 7 34 13 15 6 38 13 50 15 13 2 31 7 40 11 9 4
22 4 29 0 8 -5 9 -3 4 6 -6 10 -3 12 13 8 14 -4 20 -2 15 5 -4 6 2 8 15 5 12
-4 20 -3 17 2 -4 6 57 24 67 20 2 -1 16 5 32 13 16 9 37 14 47 12 12 -3 17 0
13 7 -5 7 0 9 14 6 14 -4 20 -2 15 5 -4 6 0 8 10 4 9 -3 19 -2 23 4 3 6 12 8
20 5 8 -3 14 -1 14 4 0 4 15 12 33 16 17 4 35 9 40 10 4 1 9 3 12 4 3 1 8 3
13 4 4 1 24 8 44 15 21 7 43 9 49 5 8 -5 9 -3 4 6 -6 10 -3 12 13 8 12 -4 20
-2 16 3 -3 5 3 10 13 11 26 2 36 4 55 12 9 4 22 9 30 10 7 2 26 8 42 15 16 6
36 9 43 7 8 -3 11 -1 8 4 -5 9 14 15 37 11 4 0 23 14 42 33 65 61 43 147 -47
180 -23 9 -816 259 -1763 556 -1130 355 -1734 540 -1760 539 -21 0 -812 -244
-1764 -544z"/>
<path d="M1810 3961 c0 -16 -12 -227 -26 -468 -14 -241 -24 -476 -22 -523 5
-112 41 -181 143 -277 70 -66 134 -122 138 -121 9 1 57 -27 57 -34 0 -4 3 -7
8 -6 10 2 186 -84 190 -93 2 -4 9 -6 16 -3 8 3 20 -1 27 -9 8 -7 20 -12 28 -9
8 3 11 1 8 -4 -3 -5 5 -10 16 -11 12 0 36 -7 52 -14 17 -7 33 -13 37 -13 3 -1
9 -4 13 -8 4 -4 13 -4 21 -1 8 3 14 0 14 -6 0 -6 7 -8 15 -5 8 4 15 2 15 -4 0
-6 9 -8 20 -5 11 3 20 1 20 -3 0 -5 15 -10 32 -11 18 -2 34 -7 36 -12 2 -5 12
-6 24 -3 13 3 19 1 15 -5 -4 -6 4 -8 20 -5 16 3 24 1 20 -5 -4 -6 4 -8 20 -5
14 3 23 1 20 -4 -3 -5 9 -10 26 -11 32 -1 77 -8 87 -13 3 -1 15 -1 28 0 12 1
22 -4 22 -10 0 -6 8 -9 18 -6 9 3 44 1 77 -5 33 -6 67 -11 75 -11 8 0 22 -2
30 -5 8 -3 30 -5 48 -4 17 2 32 -1 32 -6 0 -4 24 -8 52 -9 130 -3 193 -6 202
-12 12 -7 540 -7 552 1 8 5 34 6 202 11 28 0 52 4 52 8 0 4 15 8 33 9 101 3
117 5 117 12 0 4 12 7 28 7 31 -1 70 5 102 15 17 6 21 4 14 -6 -6 -12 -5 -12
8 -1 17 13 63 24 115 26 17 0 29 5 26 10 -3 5 6 7 20 4 15 -3 24 -1 21 3 -3 5
3 9 13 10 10 0 27 3 38 5 11 3 27 6 35 8 9 1 21 5 28 10 6 4 16 4 22 1 6 -3
10 -1 10 6 0 7 10 9 25 7 13 -3 22 -2 20 2 -6 10 43 23 55 15 4 -3 10 -1 12 5
1 5 12 11 23 13 11 2 37 11 59 20 21 9 42 14 47 11 5 -3 9 -1 9 5 0 9 68 37
83 33 4 -1 7 2 7 7 0 9 48 26 63 23 4 -1 7 2 7 7 0 10 60 37 73 33 5 -1 6 1 3
6 -3 5 17 19 44 33 27 13 50 27 50 31 0 3 16 16 35 28 55 34 152 140 186 204
25 46 33 76 37 130 4 61 -45 1026 -53 1034 -1 1 -411 -126 -911 -284 -503
-158 -937 -290 -971 -294 -99 -13 -171 2 -443 88 -702 222 -1560 492 -1565
492 -3 0 -5 -13 -5 -29z"/>
</g>
</svg>
